<svg width="959" height="550" viewBox="0 0 959 550" fill="none" xmlns="http://www.w3.org/2000/svg">
<g clip-path="url(#clip0_7893_90811)">
<path fill-rule="evenodd" clip-rule="evenodd" d="M-214.335 829.204C-234.579 813.272 -235.679 785.678 -217.504 767.503L534.711 15.2888C545.185 4.81479 559.417 0.56369 574.611 1.58503L855.566 23.152C877.583 24.8377 893.159 37.9507 897.927 56.8865L957.077 300.259C960.26 313.916 955.387 327.523 944.912 337.999L189.96 1092.95C171.784 1111.13 142.037 1112.8 121.481 1096.56L-214.335 829.204ZM141.356 1071.48C141.345 1071.47 141.333 1071.46 141.322 1071.45L-194.404 804.169L-194.474 804.114L-194.544 804.059C-197.558 801.687 -198.283 799.337 -198.363 797.667C-198.447 795.902 -197.869 793.123 -194.876 790.13L557.338 37.9162C560.036 35.2188 564.54 33.0076 572.338 33.5046C572.38 33.5073 572.423 33.5101 572.465 33.5129L853.116 55.0582L853.123 55.0587C862.441 55.7721 865.701 60.0702 866.872 64.6103C866.88 64.6401 866.888 64.6698 866.895 64.6996L925.912 307.522C925.919 307.55 925.925 307.578 925.931 307.606C926.108 308.419 926.086 309.215 925.745 310.244C925.355 311.42 924.403 313.253 922.284 315.371L167.332 1070.32C160.828 1076.83 149.379 1077.79 141.356 1071.48Z" fill="white"/>
</g>
<defs>
<clipPath id="clip0_7893_90811">
<rect width="959" height="550" fill="white"/>
</clipPath>
</defs>
</svg>
